<?xml version='1.0' encoding='utf-8'?>
<svg xmlns="http://www.w3.org/2000/svg" width="1920" height="1080" viewBox="0 0 1920 1080" data-theme="dark">
  <style>
        @font-face {
            font-family: 'Inter';
            src: url('assets/fonts/Inter-Regular.ttf') format('truetype');
            font-weight: 400;
            font-style: normal;
            font-display: swap;
        }
        @font-face {
            font-family: 'Inter';
            src: url('assets/fonts/Inter-Bold.ttf') format('truetype');
            font-weight: 600;
            font-style: normal;
            font-display: swap;
        }
        @font-face {
            font-family: 'Inter';
            src: url('assets/fonts/Inter-Bold.ttf') format('truetype');
            font-weight: 800;
            font-style: normal;
            font-display: swap;
        }
        
:root {
    --background: #0f172a;
    --panel: #1e293b;
    --primary-text: #f1f5f9;
    --muted-text: #94a3b8;
    --inverse-text: #0f172a;
    --border: #334155;
    --shadow-color: #000000;
    --icon-pad-bg: #1e293b;
    --art-glow: #7dd3fc;
    --art-glow-opacity: 0.18;
    --art-sheen: #ffffff;
    --art-sheen-opacity: 0.18;
    --art-shadow: #000000;
    --art-shadow-opacity: 0.28;
    --art-muted-line: #64748b;
    --art-panel-tint: #1e293b;
    --font-family: 'Inter', 'Segoe UI', 'Kalam', Roboto, Helvetica, Arial, sans-serif;
    --radius-xl: 16px;
    --font-family-headline: 'Inter', 'Segoe UI', 'Kalam', Roboto, Helvetica, Arial, sans-serif;
    --font-family-body: 'Inter', 'Segoe UI', 'Kalam', Roboto, Helvetica, Arial, sans-serif;
    --font-heading: 'Inter', 'Segoe UI', 'Kalam', Roboto, Helvetica, Arial, sans-serif;
    --font-body: 'Inter', 'Segoe UI', 'Kalam', Roboto, Helvetica, Arial, sans-serif;
    --font-size-h1: 56px;
    --font-size-h2: 40px;
    --font-size-h3: 28px;
    --font-size-body: 24px;
    --font-size-caption: 18px;
    --secondary-text: var(--muted-text);
    --panel-border: var(--border);
    --font-weight-normal: 400;
    --font-weight-medium: 500;
    --font-weight-semibold: 600;
    --font-weight-bold: 700;
    --spacing-gutter-pct: 0.07;
    --spacing-top-pct: 0.15;
    --spacing-bottom-pct: 0.07;
    --spacing-title-y-pct: 0.055;
    --accent-1: #93c5fd;
    --accent-2: #86efac;
    --accent-3: #fcd34d;
    --accent-4: #f9a8d4;
    --accent-5: #c4b5fd;
    --accent-6: #a5f3fc;
}
:root[data-theme="dark"] {
    --background: #0f172a;
    --panel: #1e293b;
    --primary-text: #f1f5f9;
    --muted-text: #94a3b8;
    --inverse-text: #0f172a;
    --border: #334155;
    --shadow-color: #000000;
    --icon-pad-bg: #1e293b;
    --art-glow: #7dd3fc;
    --art-glow-opacity: 0.18;
    --art-sheen: #ffffff;
    --art-sheen-opacity: 0.18;
    --art-shadow: #000000;
    --art-shadow-opacity: 0.28;
    --art-muted-line: #64748b;
    --art-panel-tint: #1e293b;
    --accent-1: #93c5fd;
    --accent-2: #86efac;
    --accent-3: #fcd34d;
    --accent-4: #f9a8d4;
    --accent-5: #c4b5fd;
    --accent-6: #a5f3fc;
}
:root[data-theme="light"] {
    --background: #f8fafc;
    --panel: #ffffff;
    --primary-text: #0f172a;
    --muted-text: #64748b;
    --inverse-text: #ffffff;
    --border: #e2e8f0;
    --shadow-color: #000000;
    --icon-pad-bg: #1e293b;
    --art-glow: #0891b2;
    --art-glow-opacity: 0.10;
    --art-sheen: #ffffff;
    --art-sheen-opacity: 0.34;
    --art-shadow: #0f172a;
    --art-shadow-opacity: 0.14;
    --art-muted-line: #94a3b8;
    --art-panel-tint: #f1f5f9;
    --accent-1: #3b82f6;
    --accent-2: #22c55e;
    --accent-3: #f59e0b;
    --accent-4: #ec4899;
    --accent-5: #8b5cf6;
    --accent-6: #06b6d4;
}</style>
  <rect x="0" y="0" width="1.92E+3" height="1.08E+3" fill="#252a34" stroke="none" id="programmatic_background"/>
  <line id="HEADER_DECOR" x1="960.0" x2="1080.0" y1="85.0" y2="85.0" stroke="var(--accent-1)" stroke-width="6" stroke-linecap="round"/>
  <defs>
    <pattern id="svgc29d7cb8-napkin-hatch" patternUnits="userSpaceOnUse" width="12" height="12">
      <path d="M -3 12 L 12 -3 M 0 15 L 15 0" fill="none" stroke="var(--primary-text)" stroke-width="1" stroke-opacity="0.05"/>
    </pattern>
    <filter id="svgc29d7cb8-shadow" x="-30%" y="-30%" width="160%" height="160%">
      <feDropShadow dx="0" dy="2" stdDeviation="3" flood-color="#000000" flood-opacity="0.08"/>
      <feDropShadow dx="0" dy="6" stdDeviation="10" flood-color="#000000" flood-opacity="0.12"/>
    </filter>
    <marker id="svgc29d7cb8-arrowhead" markerWidth="10" markerHeight="10" refX="9" refY="5" orient="auto">
      <path d="M 0 0 L 10 5 L 0 10 Z" fill="var(--accent-1)"/>
    </marker>
    <filter id="svgc29d7cb8-text-glow" x="-20%" y="-20%" width="140%" height="140%">
      <feDropShadow dx="0" dy="0" stdDeviation="2" flood-color="#000000" flood-opacity="0.4"/>
    </filter>
    <radialGradient id="svgc29d7cb8-universal-edge-vignette" cx="50%" cy="50%" r="72%">
      <stop offset="0%" stop-color="var(--background)" stop-opacity="0"/>
      <stop offset="72%" stop-color="var(--background)" stop-opacity="0.12"/>
      <stop offset="100%" stop-color="var(--primary-text)" stop-opacity="0.08"/>
    </radialGradient>
    <linearGradient id="svgc29d7cb8-universal-surface-sheen" x1="0%" y1="0%" x2="100%" y2="100%">
      <stop offset="0%" stop-color="var(--art-sheen)" stop-opacity="var(--art-sheen-opacity)"/>
      <stop offset="46%" stop-color="var(--art-sheen)" stop-opacity="0.035"/>
      <stop offset="100%" stop-color="var(--art-panel-tint)" stop-opacity="0.14"/>
    </linearGradient>
    <radialGradient id="svgc29d7cb8-universal-icon-aura" cx="50%" cy="42%" r="64%">
      <stop offset="0%" stop-color="var(--art-glow)" stop-opacity="var(--art-glow-opacity)"/>
      <stop offset="100%" stop-color="var(--background)" stop-opacity="0"/>
    </radialGradient>
    <linearGradient id="svgc29d7cb8-card-panel-sheen" x1="0%" y1="0%" x2="100%" y2="100%">
      <stop offset="0%" stop-color="var(--inverse-text)" stop-opacity="0.20"/>
      <stop offset="48%" stop-color="var(--inverse-text)" stop-opacity="0.04"/>
      <stop offset="100%" stop-color="var(--background)" stop-opacity="0.16"/>
    </linearGradient>
    <radialGradient id="svgc29d7cb8-card-icon-glow" cx="50%" cy="35%" r="62%">
      <stop offset="0%" stop-color="var(--inverse-text)" stop-opacity="0.22"/>
      <stop offset="100%" stop-color="var(--background)" stop-opacity="0"/>
    </radialGradient>
  </defs>
  <rect width="100%" height="100%" fill="var(--background)" id="CANVAS_BG"/>
  <rect width="100%" height="100%" fill="url(#svgc29d7cb8-napkin-hatch)"/>
  <rect id="UNIVERSAL_EDGE_VIGNETTE" width="100%" height="100%" fill="url(#svgc29d7cb8-universal-edge-vignette)" opacity="0.62"/>
  <text id="TITLE" x="960.0" y="59" font-size="48" font-weight="700" fill="#f1f5f9" text-anchor="middle" style="font-size: 60px; font-family: Inter, Segoe UI, Kalam, Roboto, Helvetica, Arial, sans-serif; font-weight: 700; letter-spacing:-1.2px;" data-final-font-size="60">
    <tspan x="960.0" dy="68.00px">Elements of the Marconi Mystery</tspan>
  </text>
  <rect id="TITLE_FRAME" x="134" y="25" width="1652" height="70" fill="none"/>
  <g id="DIAGRAM_MAIN">
    <rect id="ITEM_1_BG" x="485" y="170" width="480" height="410" rx="16" fill="var(--accent-3)" stroke="var(--accent-1)" stroke-width="2" filter="url(#svgc29d7cb8-shadow)" fill-opacity="0.4"/>
    <rect x="485" y="170" width="480" height="410" rx="16" fill="url(#svgc29d7cb8-card-panel-sheen)" opacity="0.88"/>
    <rect x="485" y="186" width="460" height="12" fill="var(--accent-1)"/>
    <rect id="ITEM_1_HEAD_FRAME" x="500" y="288" width="450" height="96" fill="none"/>
    <rect id="ITEM_1_BODY_FRAME" x="500" y="382" width="450" height="168" fill="none"/>
    <circle id="ITEM_1_PAD" cx="715" cy="231" r="55" fill="var(--icon-pad-bg)" stroke="var(--primary-text)" opacity="0.9" fill-opacity="0.9" stroke-width="2"/>
    <circle cx="715" cy="231" r="44" fill="none" stroke="var(--accent-1)" stroke-width="3" stroke-dasharray="6 4"/>
    <circle id="ITEM_1_BADGE" cx="715" cy="231" r="43" fill="var(--accent-1)" stroke="var(--background)" stroke-width="4" fill-opacity="0.35" opacity="0.85" stroke-opacity="0.75"/>
    <g id="ITEM_1_ICON" transform="translate(682, 198)" data-icon-size="66">
      <g transform="translate(-16.411607142857143,-16.028571428571425) scale(0.19151785714285713)" vector-effect="non-scaling-stroke" fill="#ffffff" fill-opacity="1.0" stroke="none">
        <path fill="#ffffff" d="M59.18 34.76v39.65h397.85V34.76zm67.5 51.391v73.396h39.994l-.084-.042l9.853-6.86l3.569-21.466l9.66 7.119l21.807-3.285l-3.883 11.261l6.767 13.274h173.635V86.15zm-42.87 1.62v176.01h32V87.77zm313.89 0v176.01h32V87.77zM275.706 98.397l-1.055 7.39l8.748 9.638l-7.693 2.17l-6.674 9.935l-1.383 2.06l-3.7-6.05l-13.727-2.225l5.408-5.908l-.428-13.37l7.043 2.4zM126.68 213.48v50.385h261.318V213.48zm186.41 4.4l16.308 8.05l9.284-3.086l-2.358 17.553l6.08 7.808l-17.765 2.797l-5.528 7.914l-8.623-15.824l-9.494-2.918l2.135-2.16l10.3-10.418zM79.105 281.932l-.904 18.49H434.84l-.904-18.49zm-1.783 36.49l-7.76 158.818H443.48l-7.76-158.818z" vector-effect="non-scaling-stroke" stroke="none"/>
      </g>
    </g>
    <text id="ITEM_1_HEAD" x="725.0" y="288.0" font-weight="700" font-size="26" fill="var(--primary-text)" text-anchor="middle" data-bg-id="ITEM_1_BG" fill-opacity="1.0" stroke="none" style="font-size: 30px; font-family: Inter, Segoe UI, Kalam, Roboto, Helvetica, Arial, sans-serif; font-weight: 700; letter-spacing:-0.4px;" data-final-font-size="30">
      <tspan x="725.0" dy="56.25px">Secrecy Environment</tspan>
    </text>
    <text id="ITEM_1_BODY" x="725.0" y="382.0" font-size="21" fill="var(--primary-text)" text-anchor="middle" data-bg-id="ITEM_1_BG" style="font-size: 26px; font-family: Inter, Segoe UI, Kalam, Roboto, Helvetica, Arial, sans-serif; font-weight: 400;" data-final-font-size="26">
      <tspan x="725.0" dy="42.44px">Cold War defence settings made</tspan>
      <tspan x="725.0" dy="29.90px">independent verification difficult</tspan>
    </text>
    <rect id="ITEM_2_BG" x="975" y="170" width="480" height="410" rx="16" fill="var(--accent-4)" stroke="var(--accent-2)" stroke-width="2" filter="url(#svgc29d7cb8-shadow)" fill-opacity="0.4"/>
    <rect x="975" y="170" width="480" height="410" rx="16" fill="url(#svgc29d7cb8-card-panel-sheen)" opacity="0.88"/>
    <rect x="975" y="186" width="460" height="12" fill="var(--accent-2)"/>
    <rect id="ITEM_2_HEAD_FRAME" x="990" y="288" width="450" height="96" fill="none"/>
    <rect id="ITEM_2_BODY_FRAME" x="990" y="382" width="450" height="168" fill="none"/>
    <circle id="ITEM_2_PAD" cx="1205" cy="231" r="55" fill="var(--icon-pad-bg)" stroke="var(--primary-text)" opacity="0.9" fill-opacity="0.9" stroke-width="2"/>
    <circle cx="1205" cy="231" r="44" fill="none" stroke="var(--accent-2)" stroke-width="3" stroke-dasharray="6 4"/>
    <circle id="ITEM_2_BADGE" cx="1205" cy="231" r="43" fill="var(--accent-2)" stroke="var(--background)" stroke-width="4" fill-opacity="0.35" opacity="0.85" stroke-opacity="0.75"/>
    <g id="ITEM_2_ICON" transform="translate(1172, 198)" data-icon-size="66">
      <g transform="translate(-16.028571428571425,-25.221428571428568) scale(3.064285714285714)">
        <path d="M4 21H28V27H4V21Z" fill="black"/>
        <path d="M21.79 11.01C22.53 11.01 23.21 11.43 23.54 12.09L23.9921 12.9942L24.9327 15.9971L26.995 19H28.0407C29.1203 19 30 19.8789 30 20.9575L29.6141 22.4768L30 23.996V25.0424C30 26.1211 29.1203 27 28.0407 27H27.469C27.4895 26.8362 27.5 26.6693 27.5 26.5C27.5 24.2909 25.7091 22.5 23.5 22.5C21.2909 22.5 19.5 24.2909 19.5 26.5C19.5 26.6693 19.5105 26.8362 19.5309 27H12.4691C12.4895 26.8362 12.5 26.6693 12.5 26.5C12.5 24.2909 10.7091 22.5 8.5 22.5C6.29086 22.5 4.5 24.2909 4.5 26.5C4.5 26.6693 4.51052 26.8362 4.53095 27H3.9593C2.87968 27 2 26.1211 2 25.0424V24.0037L3.31953 22.5056L2 21.0075C2 19.8589 2.87968 19.01 3.9593 19.01L7.0007 19.0086L9.19709 16.0975L10.0048 13.0004L10.46 12.09C10.79 11.43 11.47 11.01 12.21 11.01H17H21.79Z" fill="#636363"/>
        <path d="M12 26.5C12 28.433 10.433 30 8.5 30C6.567 30 5 28.433 5 26.5C5 24.567 6.567 23 8.5 23C10.433 23 12 24.567 12 26.5ZM27 26.5C27 28.433 25.433 30 23.5 30C21.567 30 20 28.433 20 26.5C20 24.567 21.567 23 23.5 23C25.433 23 27 24.567 27 26.5Z" fill="#321B41"/>
        <path d="M16 10H18V11H16V10Z" fill="#D3D3D3"/>
        <path d="M8 22.5309V19H24V22.5309C23.8362 22.5105 23.6693 22.5 23.5 22.5C21.2909 22.5 19.5 24.2909 19.5 26.5C19.5 26.6693 19.5105 26.8362 19.5309 27H12.4691C12.4895 26.8362 12.5 26.6693 12.5 26.5C12.5 24.2909 10.7091 22.5 8.5 22.5C8.33067 22.5 8.1638 22.5105 8 22.5309Z" fill="#D3D3D3"/>
        <path d="M10 26.5C10 27.3284 9.32843 28 8.5 28C7.67157 28 7 27.3284 7 26.5C7 25.6716 7.67157 25 8.5 25C9.32843 25 10 25.6716 10 26.5Z" fill="#D3D3D3"/>
        <path d="M25 26.5C25 27.3284 24.3284 28 23.5 28C22.6716 28 22 27.3284 22 26.5C22 25.6716 22.6716 25 23.5 25C24.3284 25 25 25.6716 25 26.5Z" fill="#D3D3D3"/>
        <path d="M4 22C4 21.45 3.55 21 3 21H2V23.34V24H3C3.55 24 4 23.55 4 23V22Z" fill="#FFF478"/>
        <path fill-rule="evenodd" clip-rule="evenodd" d="M16 9C16 8.45 16.45 8 17 8C17.55 8 18 8.45 18 9V10H16V9ZM28 22.57C27.96 21.71 28.65 21 29.5 21H30V22V24H29.55C28.74 24 28.04 23.38 28 22.57Z" fill="#F92F60"/>
        <path d="M15.02 19H7L10 13H15.02C15.56 13 16 13.44 16 13.98V18.02C16 18.56 15.56 19 15.02 19ZM18.98 19H27L24 13H18.98C18.44 13 18 13.44 18 13.98V18.02C18 18.56 18.44 19 18.98 19Z" fill="#26C9FC"/>
        <path d="M11.13 20H11.52C11.79 20 12 19.78 12 19.52V17.48C12 17.21 11.78 17 11.52 17H11.13C10.51 17 10 17.51 10 18.13V18.87C10 19.5 10.51 20 11.13 20Z" fill="#D3D3D3"/>
        <path d="M11.13 20H11.52C11.79 20 12 19.78 12 19.52V17.48C12 17.21 11.78 17 11.52 17H11.13C10.51 17 10 17.51 10 18.13V18.87C10 19.5 10.51 20 11.13 20Z" fill="#9B9B9B"/>
      </g>
    </g>
    <text id="ITEM_2_HEAD" x="1215.0" y="288.0" font-weight="700" font-size="26" fill="var(--primary-text)" text-anchor="middle" data-bg-id="ITEM_2_BG" fill-opacity="1.0" stroke="none" style="font-size: 30px; font-family: Inter, Segoe UI, Kalam, Roboto, Helvetica, Arial, sans-serif; font-weight: 700; letter-spacing:-0.4px;" data-final-font-size="30">
      <tspan x="1215.0" dy="56.25px">Unusual Circumstances</tspan>
    </text>
    <text id="ITEM_2_BODY" x="1215.0" y="382.0" font-size="21" fill="var(--primary-text)" text-anchor="middle" data-bg-id="ITEM_2_BG" style="font-size: 26px; font-family: Inter, Segoe UI, Kalam, Roboto, Helvetica, Arial, sans-serif; font-weight: 400;" data-final-font-size="26">
      <tspan x="1215.0" dy="42.44px">Strange details invited questions</tspan>
      <tspan x="1215.0" dy="29.90px">despite official accident findings</tspan>
    </text>
    <rect id="ITEM_3_BG" x="485" y="600" width="480" height="410" rx="16" fill="var(--accent-5)" stroke="var(--accent-3)" stroke-width="2" filter="url(#svgc29d7cb8-shadow)" fill-opacity="0.4"/>
    <rect x="485" y="600" width="480" height="410" rx="16" fill="url(#svgc29d7cb8-card-panel-sheen)" opacity="0.88"/>
    <rect x="485" y="616" width="460" height="12" fill="var(--accent-3)"/>
    <rect id="ITEM_3_HEAD_FRAME" x="500" y="718" width="450" height="96" fill="none"/>
    <rect id="ITEM_3_BODY_FRAME" x="500" y="812" width="450" height="168" fill="none"/>
    <circle id="ITEM_3_PAD" cx="715" cy="661" r="55" fill="var(--icon-pad-bg)" stroke="var(--primary-text)" opacity="0.9" fill-opacity="0.9" stroke-width="2"/>
    <circle cx="715" cy="661" r="44" fill="none" stroke="var(--accent-3)" stroke-width="3" stroke-dasharray="6 4"/>
    <circle id="ITEM_3_BADGE" cx="715" cy="661" r="43" fill="var(--accent-3)" stroke="var(--background)" stroke-width="4" fill-opacity="0.35" opacity="0.85" stroke-opacity="0.75"/>
    <g id="ITEM_3_ICON" transform="translate(682, 628)" data-icon-size="66">
      <g transform="translate(-16.028571428571425,-17.560714285714283) scale(3.064285714285714)">
        <path d="M22.5247 17.94C26.6502 17.94 29.9947 14.5956 29.9947 10.47C29.9947 6.34443 26.6502 3 22.5247 3C18.3991 3 15.0547 6.34443 15.0547 10.47C15.0547 14.5956 18.3991 17.94 22.5247 17.94Z" fill="#533566"/>
        <path d="M2.64445 29.2101C1.81445 28.3301 1.78446 26.9601 2.56446 26.0401L15.1045 11.3401L21.2145 17.8201L5.80445 29.4801C4.84445 30.2101 3.47445 30.0901 2.64445 29.2101Z" fill="#9B9B9B"/>
        <path d="M18.9958 4.00515L28.9358 14.5552C29.5958 15.2552 29.5658 16.3552 28.8658 17.0051C28.1658 17.6651 27.0758 17.6352 26.4158 16.9352L16.4758 6.38515C15.8158 5.68515 15.8458 4.59517 16.5458 3.93517C17.2458 3.27517 18.3358 3.30515 18.9958 4.00515ZM15.4146 18.5302C15.4146 19.342 14.7565 20.0002 13.9446 20.0002C13.1328 20.0002 12.4746 19.342 12.4746 18.5302C12.4746 17.7183 13.1328 17.0602 13.9446 17.0602C14.7565 17.0602 15.4146 17.7183 15.4146 18.5302Z" fill="#BEBEBE"/>
      </g>
    </g>
    <text id="ITEM_3_HEAD" x="725.0" y="718.0" font-weight="700" font-size="26" fill="var(--primary-text)" text-anchor="middle" data-bg-id="ITEM_3_BG" fill-opacity="1.0" stroke="none" style="font-size: 30px; font-family: Inter, Segoe UI, Kalam, Roboto, Helvetica, Arial, sans-serif; font-weight: 700; letter-spacing:-0.4px;" data-final-font-size="30">
      <tspan x="725.0" dy="56.25px">Narrative Structure</tspan>
    </text>
    <text id="ITEM_3_BODY" x="725.0" y="812.0" font-size="21" fill="var(--primary-text)" text-anchor="middle" data-bg-id="ITEM_3_BG" style="font-size: 26px; font-family: Inter, Segoe UI, Kalam, Roboto, Helvetica, Arial, sans-serif; font-weight: 400;" data-final-font-size="26">
      <tspan x="725.0" dy="36.46px">Journalistic reporting provided</tspan>
      <tspan x="725.0" dy="29.90px">a coherent framework</tspan>
      <tspan x="725.0" dy="29.90px">for public interest</tspan>
    </text>
    <rect id="ITEM_4_BG" x="975" y="600" width="480" height="410" rx="16" fill="var(--accent-6)" stroke="var(--accent-4)" stroke-width="2" filter="url(#svgc29d7cb8-shadow)" fill-opacity="0.4"/>
    <rect x="975" y="600" width="480" height="410" rx="16" fill="url(#svgc29d7cb8-card-panel-sheen)" opacity="0.88"/>
    <rect x="975" y="616" width="460" height="12" fill="var(--accent-4)"/>
    <rect id="ITEM_4_HEAD_FRAME" x="990" y="718" width="450" height="96" fill="none"/>
    <rect id="ITEM_4_BODY_FRAME" x="990" y="812" width="450" height="168" fill="none"/>
    <circle id="ITEM_4_PAD" cx="1205" cy="661" r="55" fill="var(--icon-pad-bg)" stroke="var(--primary-text)" opacity="0.9" fill-opacity="0.9" stroke-width="2"/>
    <circle cx="1205" cy="661" r="44" fill="none" stroke="var(--accent-4)" stroke-width="3" stroke-dasharray="6 4"/>
    <circle id="ITEM_4_BADGE" cx="1205" cy="661" r="43" fill="var(--accent-4)" stroke="var(--background)" stroke-width="4" fill-opacity="0.35" opacity="0.85" stroke-opacity="0.75"/>
    <g id="ITEM_4_ICON" transform="translate(1172, 628)" data-icon-size="66">
      <g transform="translate(-16.028571428571425,-16.028571428571425) scale(3.064285714285714)">
        <path d="M12.8472 3.83391C12.9336 2.79732 13.8001 2 14.8403 2H17.1597C18.1999 2 19.0664 2.79732 19.1528 3.83391L19.3882 6.6587C19.422 7.06373 19.8992 7.2614 20.2095 6.99887L22.3734 5.16789C23.1674 4.49599 24.3439 4.54493 25.0795 5.28045L26.7196 6.92056C27.4551 7.65608 27.504 8.8326 26.8321 9.62666L25.0012 11.7905C24.7386 12.1008 24.9363 12.578 25.3413 12.6118L28.1661 12.8472C29.2027 12.9336 30 13.8001 30 14.8403V17.1597C30 18.1999 29.2027 19.0664 28.1661 19.1528L25.3413 19.3882C24.9363 19.422 24.7386 19.8992 25.0012 20.2095L26.8321 22.3733C27.504 23.1674 27.4551 24.3439 26.7196 25.0794L25.0795 26.7196C24.3439 27.4551 23.1674 27.504 22.3734 26.8321L20.2095 25.0011C19.8992 24.7386 19.422 24.9363 19.3882 25.3413L19.1528 28.1661C19.0664 29.2027 18.1999 30 17.1597 30H14.8403C13.8001 30 12.9336 29.2027 12.8472 28.1661L12.6118 25.3413C12.578 24.9363 12.1008 24.7386 11.7905 25.0012L9.62666 26.8321C8.8326 27.504 7.65608 27.4551 6.92056 26.7196L5.28045 25.0795C4.54493 24.3439 4.496 23.1674 5.16789 22.3734L6.99888 20.2095C7.26141 19.8992 7.06373 19.422 6.65871 19.3882L3.83391 19.1528C2.79732 19.0664 2 18.1999 2 17.1597V14.8403C2 13.8001 2.79732 12.9336 3.83391 12.8472L6.65871 12.6118C7.06373 12.578 7.2614 12.1008 6.99888 11.7905L5.16789 9.62664C4.496 8.83258 4.54493 7.65606 5.28045 6.92054L6.92056 5.28043C7.65608 4.54491 8.8326 4.49597 9.62666 5.16787L11.7905 6.99884C12.1008 7.26137 12.578 7.06369 12.6118 6.65867L12.8472 3.83391ZM21 16C21 13.2386 18.7614 11 16 11C13.2386 11 11 13.2386 11 16C11 18.7614 13.2386 21 16 21C18.7614 21 21 18.7614 21 16Z" fill="#B4ACBC"/>
        <path d="M24 16C24 20.4183 20.4183 24 16 24C11.5817 24 8 20.4183 8 16C8 11.5817 11.5817 8 16 8C20.4183 8 24 11.5817 24 16ZM20.5 16C20.5 13.5147 18.4853 11.5 16 11.5C13.5147 11.5 11.5 13.5147 11.5 16C11.5 18.4853 13.5147 20.5 16 20.5C18.4853 20.5 20.5 18.4853 20.5 16Z" fill="#998EA4"/>
        <path d="M10.5 16C10.5 12.9624 12.9624 10.5 16 10.5C19.0376 10.5 21.5 12.9624 21.5 16C21.5 19.0376 19.0376 21.5 16 21.5C12.9624 21.5 10.5 19.0376 10.5 16ZM21 16C21 13.2386 18.7614 11 16 11C13.2386 11 11 13.2386 11 16C11 18.7614 13.2386 21 16 21C18.7614 21 21 18.7614 21 16Z" fill="#CDC4D6"/>
      </g>
    </g>
    <text id="ITEM_4_HEAD" x="1215.0" y="718.0" font-weight="700" font-size="26" fill="var(--primary-text)" text-anchor="middle" data-bg-id="ITEM_4_BG" fill-opacity="1.0" stroke="none" style="font-size: 30px; font-family: Inter, Segoe UI, Kalam, Roboto, Helvetica, Arial, sans-serif; font-weight: 700; letter-spacing:-0.4px;" data-final-font-size="30">
      <tspan x="1215.0" dy="56.25px">Occupational Focus</tspan>
    </text>
    <text id="ITEM_4_BODY" x="1215.0" y="812.0" font-size="21" fill="var(--primary-text)" text-anchor="middle" data-bg-id="ITEM_4_BG" style="font-size: 26px; font-family: Inter, Segoe UI, Kalam, Roboto, Helvetica, Arial, sans-serif; font-weight: 400;" data-final-font-size="26">
      <tspan x="1215.0" dy="36.46px">Inquiry centered on technical</tspan>
      <tspan x="1215.0" dy="29.90px">specialists rather than broad</tspan>
      <tspan x="1215.0" dy="29.90px">conspiracies</tspan>
    </text>
  </g>
</svg>
