<?xml version='1.0' encoding='utf-8'?>
<svg xmlns="http://www.w3.org/2000/svg" width="1920" height="1080" viewBox="0 0 1920 1080" data-theme="light">
  <style>
        @font-face {
            font-family: 'Inter';
            src: url('assets/fonts/Inter-Regular.ttf') format('truetype');
            font-weight: 400;
            font-style: normal;
            font-display: swap;
        }
        @font-face {
            font-family: 'Inter';
            src: url('assets/fonts/Inter-Bold.ttf') format('truetype');
            font-weight: 600;
            font-style: normal;
            font-display: swap;
        }
        @font-face {
            font-family: 'Inter';
            src: url('assets/fonts/Inter-Bold.ttf') format('truetype');
            font-weight: 800;
            font-style: normal;
            font-display: swap;
        }
        
:root {
    --background: #f8fafc;
    --panel: #ffffff;
    --primary-text: #0f172a;
    --muted-text: #64748b;
    --inverse-text: #ffffff;
    --border: #e2e8f0;
    --shadow-color: #000000;
    --icon-pad-bg: #1e293b;
    --art-glow: #0891b2;
    --art-glow-opacity: 0.10;
    --art-sheen: #ffffff;
    --art-sheen-opacity: 0.34;
    --art-shadow: #0f172a;
    --art-shadow-opacity: 0.14;
    --art-muted-line: #94a3b8;
    --art-panel-tint: #f1f5f9;
    --font-family: 'Inter', 'Segoe UI', 'Kalam', Roboto, Helvetica, Arial, sans-serif;
    --radius-xl: 16px;
    --font-family-headline: 'Inter', 'Segoe UI', 'Kalam', Roboto, Helvetica, Arial, sans-serif;
    --font-family-body: 'Inter', 'Segoe UI', 'Kalam', Roboto, Helvetica, Arial, sans-serif;
    --font-heading: 'Inter', 'Segoe UI', 'Kalam', Roboto, Helvetica, Arial, sans-serif;
    --font-body: 'Inter', 'Segoe UI', 'Kalam', Roboto, Helvetica, Arial, sans-serif;
    --font-size-h1: 56px;
    --font-size-h2: 40px;
    --font-size-h3: 28px;
    --font-size-body: 24px;
    --font-size-caption: 18px;
    --secondary-text: var(--muted-text);
    --panel-border: var(--border);
    --font-weight-normal: 400;
    --font-weight-medium: 500;
    --font-weight-semibold: 600;
    --font-weight-bold: 700;
    --spacing-gutter-pct: 0.07;
    --spacing-top-pct: 0.15;
    --spacing-bottom-pct: 0.07;
    --spacing-title-y-pct: 0.055;
    --accent-1: #4f46e5;
    --accent-2: #059669;
    --accent-3: #db2777;
    --accent-4: #d97706;
    --accent-5: #0284c7;
    --accent-6: #7c3aed;
    --accent-7: #dc2626;
    --accent-8: #0d9488;
    --accent-9: #ea580c;
    --accent-10: #c026d3;
}
:root[data-theme="dark"] {
    --background: #0f172a;
    --panel: #1e293b;
    --primary-text: #f1f5f9;
    --muted-text: #94a3b8;
    --inverse-text: #0f172a;
    --border: #334155;
    --shadow-color: #000000;
    --icon-pad-bg: #1e293b;
    --art-glow: #7dd3fc;
    --art-glow-opacity: 0.18;
    --art-sheen: #ffffff;
    --art-sheen-opacity: 0.18;
    --art-shadow: #000000;
    --art-shadow-opacity: 0.28;
    --art-muted-line: #64748b;
    --art-panel-tint: #1e293b;
    --accent-1: #a5b4fc;
    --accent-2: #34d399;
    --accent-3: #f472b6;
    --accent-4: #fbbf24;
    --accent-5: #38bdf8;
    --accent-6: #c084fc;
    --accent-7: #f87171;
    --accent-8: #2dd4bf;
    --accent-9: #fb923c;
    --accent-10: #e879f9;
}
:root[data-theme="light"] {
    --background: #f8fafc;
    --panel: #ffffff;
    --primary-text: #0f172a;
    --muted-text: #64748b;
    --inverse-text: #ffffff;
    --border: #e2e8f0;
    --shadow-color: #000000;
    --icon-pad-bg: #1e293b;
    --art-glow: #0891b2;
    --art-glow-opacity: 0.10;
    --art-sheen: #ffffff;
    --art-sheen-opacity: 0.34;
    --art-shadow: #0f172a;
    --art-shadow-opacity: 0.14;
    --art-muted-line: #94a3b8;
    --art-panel-tint: #f1f5f9;
    --accent-1: #4f46e5;
    --accent-2: #059669;
    --accent-3: #db2777;
    --accent-4: #d97706;
    --accent-5: #0284c7;
    --accent-6: #7c3aed;
    --accent-7: #dc2626;
    --accent-8: #0d9488;
    --accent-9: #ea580c;
    --accent-10: #c026d3;
}</style>
  <rect x="0" y="0" width="1.92E+3" height="1.08E+3" fill="#252a34" stroke="none" id="programmatic_background"/>
  <line id="HEADER_DECOR" x1="960.0" x2="1080.0" y1="127.0" y2="127.0" stroke="var(--accent-1)" stroke-width="6" stroke-linecap="round"/>
  <defs>
    <pattern id="svgd0de590f-napkin-hatch" patternUnits="userSpaceOnUse" width="12" height="12">
      <path d="M -3 12 L 12 -3 M 0 15 L 15 0" fill="none" stroke="var(--primary-text)" stroke-width="1" stroke-opacity="0.05"/>
    </pattern>
    <filter id="svgd0de590f-shadow" x="-30%" y="-30%" width="160%" height="160%">
      <feDropShadow dx="0" dy="3" stdDeviation="6" flood-color="#000000" flood-opacity="0.10"/>
      <feDropShadow dx="0" dy="8" stdDeviation="12" flood-color="#000000" flood-opacity="0.16"/>
    </filter>
    <radialGradient id="svgd0de590f-universal-edge-vignette" cx="50%" cy="50%" r="72%">
      <stop offset="0%" stop-color="var(--background)" stop-opacity="0"/>
      <stop offset="72%" stop-color="var(--background)" stop-opacity="0.12"/>
      <stop offset="100%" stop-color="var(--primary-text)" stop-opacity="0.08"/>
    </radialGradient>
    <linearGradient id="svgd0de590f-universal-surface-sheen" x1="0%" y1="0%" x2="100%" y2="100%">
      <stop offset="0%" stop-color="var(--art-sheen)" stop-opacity="var(--art-sheen-opacity)"/>
      <stop offset="46%" stop-color="var(--art-sheen)" stop-opacity="0.035"/>
      <stop offset="100%" stop-color="var(--art-panel-tint)" stop-opacity="0.14"/>
    </linearGradient>
    <radialGradient id="svgd0de590f-universal-icon-aura" cx="50%" cy="42%" r="64%">
      <stop offset="0%" stop-color="var(--art-glow)" stop-opacity="var(--art-glow-opacity)"/>
      <stop offset="100%" stop-color="var(--background)" stop-opacity="0"/>
    </radialGradient>
    <filter id="svgd0de590f-text-glow" x="-20%" y="-20%" width="140%" height="140%">
      <feDropShadow dx="0" dy="0" stdDeviation="2" flood-color="#000000" flood-opacity="0.4"/>
    </filter>
    <marker id="svgd0de590f-arrowhead" markerWidth="10" markerHeight="7" refX="9" refY="3.5" orient="auto" markerUnits="strokeWidth">
      <polygon points="0 0, 10 3.5, 0 7" fill="var(--muted-text)" opacity="0.6"/>
    </marker>
  </defs>
  <rect width="100%" height="100%" fill="var(--background)" id="CANVAS_BG"/>
  <rect width="100%" height="100%" fill="url(#svgd0de590f-napkin-hatch)"/>
  <rect id="UNIVERSAL_EDGE_VIGNETTE" width="100%" height="100%" fill="url(#svgd0de590f-universal-edge-vignette)" opacity="0.62"/>
  <text id="TITLE" x="960.0" y="59" text-anchor="middle" font-size="60" font-weight="800" fill="#0f172a" style="font-size: 60px; font-family: Inter, Segoe UI, Kalam, Roboto, Helvetica, Arial, sans-serif; font-weight: 700; letter-spacing:-1.2px;" data-final-font-size="60">
    <tspan x="960.0" dy="68.00px">Hierarchy of National Security Risk</tspan>
  </text>
  <rect id="TITLE_FRAME" x="134" y="54" width="1652" height="100" fill="none"/>
  <rect x="150" y="150" width="1620" height="850" rx="40" fill="var(--panel)" fill-opacity="0.18" stroke="var(--muted-text)" stroke-width="2" opacity="0.90"/>
  <line x1="360" y1="212.0" x2="360" y2="938.0" stroke="var(--muted-text)" stroke-width="18" stroke-linecap="round" opacity="0.18"/>
  <line x1="360" y1="212.0" x2="360" y2="938.0" stroke="var(--border)" stroke-width="3" stroke-linecap="round" opacity="0.72"/>
  <g id="DIAGRAM_MAIN">
    <g filter="url(#svgd0de590f-shadow)">
      <line x1="404.0" y1="240.0" x2="420.0" y2="240.0" stroke="var(--accent-1)" stroke-width="5" opacity="0.76" stroke-linecap="round"/>
      <rect id="ITEM_1_BG" x="420.0" y="174.0" width="1085" height="152" rx="22" fill="var(--panel)" fill-opacity="0.97" stroke="var(--accent-1)" stroke-width="2.5"/>
      <rect x="420.0" y="174.0" width="1085" height="152" rx="16" fill="url(#svgd0de590f-universal-surface-sheen)" opacity="0.88"/>
      <rect x="420.0" y="174.0" width="14" height="132" rx="7" fill="var(--accent-1)" fill-opacity="0.90"/>
      <circle id="ITEM_1_PAD" cx="360" cy="240.0" r="46" fill="var(--icon-pad-bg)" opacity="0.95" fill-opacity="0.9" stroke-width="2" stroke="var(--primary-text)"/>
      <circle id="ITEM_1_PAD_INNER" cx="360" cy="240.0" r="35.88" fill="var(--accent-2)" fill-opacity="0.22"/>
      <circle cx="360" cy="240.0" r="38" fill="none" stroke="var(--accent-1)" stroke-width="3" stroke-dasharray="6 4"/>
      <g id="ITEM_1_ICON" transform="translate(324, 204.0)" data-icon-size="72" stroke-dasharray="6 4">
        <g transform="translate(-5.142857142857143,-6.428571428571431) scale(2.5714285714285716)">
          <path d="M22.5247 17.94C26.6502 17.94 29.9947 14.5956 29.9947 10.47C29.9947 6.34443 26.6502 3 22.5247 3C18.3991 3 15.0547 6.34443 15.0547 10.47C15.0547 14.5956 18.3991 17.94 22.5247 17.94Z" fill="#533566"/>
          <path d="M2.64445 29.2101C1.81445 28.3301 1.78446 26.9601 2.56446 26.0401L15.1045 11.3401L21.2145 17.8201L5.80445 29.4801C4.84445 30.2101 3.47445 30.0901 2.64445 29.2101Z" fill="#9B9B9B"/>
          <path d="M18.9958 4.00515L28.9358 14.5552C29.5958 15.2552 29.5658 16.3552 28.8658 17.0051C28.1658 17.6651 27.0758 17.6352 26.4158 16.9352L16.4758 6.38515C15.8158 5.68515 15.8458 4.59517 16.5458 3.93517C17.2458 3.27517 18.3358 3.30515 18.9958 4.00515ZM15.4146 18.5302C15.4146 19.342 14.7565 20.0002 13.9446 20.0002C13.1328 20.0002 12.4746 19.342 12.4746 18.5302C12.4746 17.7183 13.1328 17.0602 13.9446 17.0602C14.7565 17.0602 15.4146 17.7183 15.4146 18.5302Z" fill="#BEBEBE"/>
        </g>
      </g>
      <text id="ITEM_1_HEAD" x="500.0" y="192.0" text-anchor="start" font-weight="800" font-size="30" fill="var(--primary-text)" data-bg-id="ITEM_1_BG" fill-opacity="1.0" style="font-size: 30px; font-family: Inter, Segoe UI, Kalam, Roboto, Helvetica, Arial, sans-serif; font-weight: 700; letter-spacing:-0.4px;" data-final-font-size="30">
        <tspan x="500.0" dy="27.13px">Public Reporting</tspan>
      </text>
      <rect id="ITEM_1_HEAD_FRAME" x="500" y="192.0" width="760" height="32" fill="none"/>
      <text id="ITEM_1_BODY" x="500.0" y="230.0" text-anchor="start" font-size="24" fill="var(--primary-text)" data-bg-id="ITEM_1_BG" style="font-size: 26px; font-family: Inter, Segoe UI, Kalam, Roboto, Helvetica, Arial, sans-serif; font-weight: 400;" data-final-font-size="26">
        <tspan x="500.0" dy="31.81px">News outlets report on missing laboratory staff members</tspan>
      </text>
      <rect id="ITEM_1_BODY_FRAME" x="500" y="230.0" width="860" height="72" fill="none"/>
      <text x="1460" y="216.0" text-anchor="end" font-size="18" font-weight="800" fill="var(--accent-1)" opacity="0.70">01</text>
    </g>
    <g filter="url(#svgd0de590f-shadow)">
      <line x1="404.0" y1="407.5" x2="420.0" y2="407.5" stroke="var(--accent-2)" stroke-width="5" opacity="0.76" stroke-linecap="round"/>
      <rect id="ITEM_2_BG" x="420.0" y="341.5" width="1085" height="152" rx="22" fill="var(--panel)" fill-opacity="0.97" stroke="var(--accent-2)" stroke-width="2.5"/>
      <rect x="420.0" y="341.5" width="1085" height="152" rx="16" fill="url(#svgd0de590f-universal-surface-sheen)" opacity="0.88"/>
      <rect x="420.0" y="341.5" width="14" height="132" rx="7" fill="var(--accent-2)" fill-opacity="0.90"/>
      <circle id="ITEM_2_PAD" cx="360" cy="407.5" r="46" fill="var(--icon-pad-bg)" opacity="0.95" fill-opacity="0.9" stroke-width="2" stroke="var(--primary-text)"/>
      <circle id="ITEM_2_PAD_INNER" cx="360" cy="407.5" r="35.88" fill="var(--accent-3)" fill-opacity="0.22"/>
      <circle cx="360" cy="407.5" r="38" fill="none" stroke="var(--accent-2)" stroke-width="3" stroke-dasharray="6 4"/>
      <g id="ITEM_2_ICON" transform="translate(324, 371.5)" data-icon-size="72" stroke-dasharray="6 4">
        <g transform="translate(0.0,-1.125) scale(0.5625)">
          <path d="M103.31,110.19L24.78,110.19C18.14,110.19 12.7,104.75 12.7,98.11L10.28,48.62C10.28,41.98 15.72,36.54 22.36,36.54L105.72,36.54C112.36,36.54 117.8,41.98 117.8,48.62L115.38,98.11C115.39,104.75 109.95,110.19 103.31,110.19Z" style="fill:rgb(161,136,127);fill-rule:nonzero;"/>
          <path d="M115.43,109.33C110.71,91.19 84.24,87.88 64.12,87.67L63.96,87.67C43.84,87.89 16.32,91.19 11.59,109.33L8.76,120.61L118.26,120.61L115.43,109.33Z" style="fill:rgb(35,24,21);fill-rule:nonzero;"/>
          <path d="M72.62,82.91L55.37,82.91L55.37,92.01C55.37,96.13 58.88,99.46 63.21,99.46L64.78,99.46C69.11,99.46 72.62,96.12 72.62,92.01L72.62,82.91Z" style="fill:rgb(228,152,0);fill-rule:nonzero;"/>
          <path d="M63.94,10.15C40.84,10.15 34.79,28.06 34.79,53.22C34.79,78.38 52.71,86.06 63.94,86.06C75.17,86.06 93.09,78.38 93.09,53.22C93.09,28.06 87.05,10.15 63.94,10.15Z" style="fill:rgb(251,193,27);fill-rule:nonzero;"/>
          <path d="M72.8,71.39L55.28,71.39C54.28,71.39 53.84,72.06 54.51,73.08C55.44,74.5 58.89,77.22 64.04,77.22C69.19,77.22 72.64,74.5 73.57,73.08C74.23,72.07 73.8,71.39 72.8,71.39Z" style="fill:rgb(81,63,53);fill-rule:nonzero;"/>
          <path d="M54.08,54.9C54.08,57.6 52.28,59.78 50.04,59.78C47.81,59.78 45.99,57.59 45.99,54.9C45.99,52.2 47.81,50.01 50.04,50.01C52.27,50.01 54.08,52.19 54.08,54.9M74,54.9C74,57.6 75.81,59.78 78.05,59.78C80.28,59.78 82.1,57.59 82.1,54.9C82.1,52.2 80.28,50.01 78.05,50.01C75.81,50.01 74,52.19 74,54.9" style="fill:rgb(68,68,68);fill-rule:nonzero;"/>
          <path d="M68.22,63.95C66.73,64.37 65.18,64.58 63.99,64.58C62.8,64.58 61.25,64.37 59.76,63.95C59.12,63.77 58.87,64.37 59.1,64.77C59.57,65.6 61.48,67.28 63.99,67.28C66.5,67.28 68.41,65.6 68.88,64.77C69.11,64.37 68.86,63.77 68.22,63.95Z" style="fill:rgb(228,149,0);fill-rule:nonzero;"/>
          <rect x="-4.11" y="119.67" width="136.01" height="12.33" style="fill:rgb(109,76,65);"/>
          <path d="M72.07,115.57L55.73,115.94L55.73,97.43L72.07,97.43L72.07,115.57Z" style="fill:rgb(216,216,216);fill-rule:nonzero;"/>
          <path d="M51.73,88.22L54.85,110.12L63.98,97.44L55.33,87.96L51.73,88.22ZM76.36,88.22L73.24,110.12L64.1,97.44L72.76,87.96L76.36,88.22Z" style="fill:white;fill-rule:nonzero;"/>
          <path d="M47.15,89.12C47.62,88.8 52.59,88.12 52.59,88.12L63.98,119.66L42.55,119.58L47.15,89.12Z" style="fill:rgb(35,24,21);fill-rule:nonzero;"/>
          <path d="M81.46,89.12C80.99,88.8 76.02,88.12 76.02,88.12L63.97,119.66L86.29,119.58L81.46,89.12Z" style="fill:rgb(35,24,21);fill-rule:nonzero;"/>
          <path d="M94.066,27.778C96.675,25.707 100.329,23.961 105.476,23.859C105.476,23.859 105.721,23.849 105.834,23.849C105.936,23.849 106.191,23.859 106.191,23.859C109.911,23.964 112.963,24.918 115.402,26.243C116.216,26.5 116.997,26.834 117.673,27.221C118.084,27.456 118.457,27.717 118.827,28.012C118.903,28.073 119.184,28.228 119.209,28.321C119.238,28.425 118.994,28.305 118.886,28.296C118.731,28.283 118.574,28.272 118.419,28.252L118.368,28.246C118.971,28.744 119.515,29.258 120,29.772C120.271,29.935 120.539,30.114 120.804,30.314C121.132,30.562 121.401,30.867 121.659,31.184C121.748,31.294 121.84,31.401 121.917,31.52C121.966,31.595 122.148,31.735 122.06,31.745C121.896,31.764 121.698,31.677 121.52,31.62C122.01,32.31 122.39,32.964 122.665,33.536C123.633,35.551 124.199,37.503 124.508,39.288C125.092,40.069 125.567,40.92 125.654,41.756C125.668,41.885 125.453,41.592 125.348,41.517C125.153,41.377 124.947,41.255 124.746,41.124C124.854,42.375 124.844,43.507 124.778,44.475C125.148,44.925 125.697,45.513 125.762,46.106C125.767,46.16 125.663,46.061 125.615,46.037C125.48,45.97 125.357,45.907 125.234,45.818C125.048,45.683 124.867,45.537 124.697,45.38C124.515,47.006 124.206,47.978 124.206,47.978C124.206,47.978 123.992,47.754 123.584,47.437C123.145,47.1 122.665,46.906 122.665,46.906C123.306,49.8 123.851,54.429 122.665,56.431C120.735,54.812 118.108,49.269 117.391,39.774C116.735,40.348 116.068,40.864 115.492,41.108C115.534,41.282 115.575,41.456 115.63,41.619C115.693,41.806 115.767,41.99 115.858,42.164C115.907,42.256 116.121,42.448 116.018,42.432C115.768,42.394 115.388,42.01 115.166,41.873C114.718,41.595 114.247,41.364 113.749,41.208C113.257,41.177 112.766,41.13 112.283,41.047C112.464,41.653 112.611,42.271 112.664,42.901C112.683,43.125 112.706,43.776 112.534,43.933C112.534,43.933 112.37,43.713 112.357,43.694C112.245,43.534 112.131,43.375 112.017,43.217C111.69,42.765 111.364,42.316 110.987,41.903C110.287,41.135 109.563,40.41 108.76,39.79C107.985,39.438 107.209,39.088 106.389,38.836C105.299,38.5 104.178,38.454 103.065,38.251C102.871,38.215 102.678,38.17 102.487,38.118C102.375,38.122 102.263,38.127 102.152,38.133C102.787,39.669 103,41.371 102.51,42.961C102.292,43.667 101.971,44.34 101.551,44.947C101.52,44.992 101.219,45.432 101.139,45.399C100.91,45.303 100.565,44.561 100.421,44.352C99.882,43.567 99.309,42.759 98.629,42.086C97.378,40.845 95.87,40.03 94.322,39.278C94.417,45.039 92.655,52.822 89.002,56.431C88.06,54.319 88.205,49.505 89.002,46.906C89.002,46.906 88.512,47.1 88.084,47.437C87.686,47.754 87.461,47.978 87.461,47.978C87.461,47.978 86.769,45.388 86.759,42.115C86.575,42.277 86.243,42.692 86.034,42.725C85.973,42.735 86.045,42.601 86.052,42.539C86.069,42.39 86.093,42.241 86.117,42.093C86.173,41.748 86.247,41.406 86.344,41.07C86.474,40.618 86.659,40.195 86.876,39.788C87.097,37.721 87.669,35.566 88.878,33.721C88.632,33.702 88.393,33.677 88.167,33.65C87.877,33.614 87.587,33.553 87.313,33.452C87.277,33.439 87.088,33.396 87.076,33.358C87.076,33.358 87.599,33.105 87.679,33.062C88.34,32.711 88.992,32.314 89.634,31.927C89.969,31.724 90.31,31.497 90.647,31.254C91.238,30.503 91.939,29.698 92.772,28.904C92.544,28.723 92.341,28.501 92.171,28.224C91.979,27.91 91.799,27.548 91.755,27.177C91.74,27.051 91.827,26.729 92.041,26.77C92.608,26.879 92.864,27.699 93.479,27.838C93.635,27.873 93.855,27.833 94.066,27.778Z" style="fill:rgb(109,76,65);fill-rule:nonzero;"/>
        </g>
      </g>
      <text id="ITEM_2_HEAD" x="500.0" y="359.5" text-anchor="start" font-weight="800" font-size="30" fill="var(--accent-3)" data-bg-id="ITEM_2_BG" fill-opacity="1.0" style="font-size: 30px; font-family: Inter, Segoe UI, Kalam, Roboto, Helvetica, Arial, sans-serif; font-weight: 700; letter-spacing:-0.4px;" data-final-font-size="30">
        <tspan x="500.0" dy="27.13px">Congressional Inquiry</tspan>
      </text>
      <rect id="ITEM_2_HEAD_FRAME" x="500" y="359.5" width="760" height="32" fill="none"/>
      <text id="ITEM_2_BODY" x="500.0" y="397.5" text-anchor="start" font-size="24" fill="var(--primary-text)" data-bg-id="ITEM_2_BG" style="font-size: 26px; font-family: Inter, Segoe UI, Kalam, Roboto, Helvetica, Arial, sans-serif; font-weight: 400;" data-final-font-size="26">
        <tspan x="500.0" dy="31.81px">House Oversight Committee requests briefings from four agencies</tspan>
      </text>
      <rect id="ITEM_2_BODY_FRAME" x="500" y="397.5" width="860" height="72" fill="none"/>
      <text x="1460" y="383.5" text-anchor="end" font-size="18" font-weight="800" fill="var(--accent-2)" opacity="0.70">02</text>
    </g>
    <g filter="url(#svgd0de590f-shadow)">
      <line x1="404.0" y1="575.0" x2="420.0" y2="575.0" stroke="var(--accent-3)" stroke-width="5" opacity="0.76" stroke-linecap="round"/>
      <rect id="ITEM_3_BG" x="420.0" y="509.0" width="1085" height="152" rx="22" fill="var(--panel)" fill-opacity="0.97" stroke="var(--accent-3)" stroke-width="2.5"/>
      <rect x="420.0" y="509.0" width="1085" height="152" rx="16" fill="url(#svgd0de590f-universal-surface-sheen)" opacity="0.88"/>
      <rect x="420.0" y="509.0" width="14" height="132" rx="7" fill="var(--accent-3)" fill-opacity="0.90"/>
      <circle id="ITEM_3_PAD" cx="360" cy="575.0" r="46" fill="var(--icon-pad-bg)" opacity="0.95" fill-opacity="0.9" stroke-width="2" stroke="var(--primary-text)"/>
      <circle id="ITEM_3_PAD_INNER" cx="360" cy="575.0" r="35.88" fill="var(--accent-4)" fill-opacity="0.22"/>
      <circle cx="360" cy="575.0" r="38" fill="none" stroke="var(--accent-3)" stroke-width="3" stroke-dasharray="6 4"/>
      <g id="ITEM_3_ICON" transform="translate(324, 539.0)" data-icon-size="72" stroke-dasharray="6 4">
        <g transform="translate(-5.142857142857143,-10.285714285714292) scale(2.5714285714285716)">
          <path d="M11.4063 6.15625C6.13126 5.50625 4.25001 8.15625 3.34376 9.37501C0.875013 13.0156 2.35939 17.0156 4.15626 18.9375C4.15626 18.9375 14.25 28.7656 14.5313 29.0312C14.8125 29.2969 15.4766 30.2031 17.0781 29.9453C18.4757 29.7203 18.875 28.0312 18.875 28.0312C18.875 28.0312 19.9073 28.8731 21.3906 28.0312C22.5469 27.375 22.5 26.0625 22.5 26.0625C22.5 26.0625 23.7383 26.6829 25.0625 25.5625C26.2553 24.5532 25.5156 22.7812 25.5156 22.7812C25.5156 22.7812 26.5856 22.9571 27.3438 22.125C28.3688 21 28.0156 19.5781 27.3438 18.9375L19.625 10.5L19.0313 7.375L11.4063 6.15625Z" fill="#FFC83D"/>
          <path d="M26.7074 22.5933L24.4809 20.3364C24.287 20.1398 23.9704 20.1376 23.7739 20.3315C23.5773 20.5255 23.5751 20.8421 23.769 21.0386L25.5334 22.8272C25.5223 22.7973 25.5156 22.7812 25.5156 22.7812C25.5156 22.7812 26.0977 22.8769 26.7074 22.5933Z" fill="#D67D00"/>
          <path d="M23.9779 26.1509L21.6684 23.5872C21.4835 23.382 21.1674 23.3656 20.9622 23.5504C20.757 23.7352 20.7406 24.0514 20.9254 24.2565L22.5845 26.0983C22.7836 26.1741 23.3157 26.3302 23.9779 26.1509Z" fill="#D67D00"/>
          <path d="M20.5759 28.351L18.7698 26.438C18.5802 26.2372 18.2638 26.2281 18.063 26.4177C17.8622 26.6073 17.8531 26.9237 18.0427 27.1245L18.9471 28.0824C19.1457 28.2124 19.7417 28.5326 20.5759 28.351Z" fill="#D67D00"/>
          <path d="M18.4033 29.0535C17.6442 29.2557 16.2359 29.3193 15.2656 28.2812L14.4899 28.9916C14.51 29.011 14.524 29.0244 14.5313 29.0312C14.5602 29.0586 14.5932 29.0927 14.6309 29.1317C14.9591 29.4711 15.6414 30.1766 17.0781 29.9453C17.6998 29.8452 18.124 29.4554 18.4033 29.0535Z" fill="#D67D00"/>
          <path d="M6.375 6.8125C4.6875 8.97916 2.0875 14.5875 6.6875 18.4375L5.24045 19.9931C4.5734 19.3437 4.15626 18.9375 4.15626 18.9375C2.35939 17.0156 0.875013 13.0156 3.34376 9.375C3.35716 9.35698 3.37078 9.33864 3.38461 9.32C3.90872 8.61416 4.74999 7.48117 6.33357 6.75266L6.375 6.8125Z" fill="#F59F00"/>
          <path d="M17.25 23.6875C18.4531 25.0781 16.9492 26.8496 16.25 27.5938L5.66868 16.5845C7.64313 14.5816 8.94702 14.3814 9.82813 15.25C10.7092 16.1186 10.2969 16.7344 10.2969 16.7344C10.2969 16.7344 11.4909 16.0557 12.75 17.2969C14.0091 18.5381 13.1406 19.4844 13.1406 19.4844C13.1406 19.4844 14.44 19.2504 15.3594 20.2812C16.3906 21.4375 15.7344 22.7812 15.7344 22.7812C15.7344 22.7812 16.5248 22.8493 17.25 23.6875Z" fill="#D67D00"/>
          <path d="M12.4375 8C15.6719 6.70313 20.5781 6.04688 22.8281 6.01562C24.3594 6.01562 26.3091 6.38659 28.375 8.8125C31.6748 12.6873 29.2031 17.1094 27.25 18.9062V17.5C27.25 17.5 19.7436 10.9644 19.5 10.7344C19.05 10.3094 17.1979 10.4375 17 10.5C16.3958 10.6875 15.35 11 14 11.5C12.9023 11.9066 12.0312 11.5781 11.6718 10.7344C11.3124 9.89062 10.8297 8.64466 12.4375 8Z" fill="#FFC83D"/>
          <path d="M28.3106 17.7099C27.9645 18.1804 27.599 18.5852 27.25 18.9063C24.4896 16.5 18.8719 11.5813 18.4219 11.1563C17.9719 10.7313 17.4479 10.75 17.25 10.8125C16.6458 11 15.1 11.5 13.75 12C12.6523 12.4066 11.5469 11.5781 11.1875 10.7344C10.8589 9.96292 10.8321 8.85521 12.0589 8.17831L12.69 7.90133C12.7068 7.89496 12.7235 7.8886 12.7403 7.88226C10.7869 9.34968 12.5116 11.1435 14.125 10.9375C14.6919 10.8651 15.625 10.6719 16.5313 10.4375C16.8909 10.3445 17.2439 10.1794 17.5771 10.0236C18.2021 9.73124 18.7575 9.47151 19.1563 9.78126C20.6561 10.9462 25.1333 14.7492 28.3106 17.7099Z" fill="#D67D00"/>
          <path d="M8.81945 16.8786C8.07602 15.9154 6.69251 15.7372 5.72929 16.4806L3.81252 18.1016C2.92972 18.836 2.70107 20.2103 3.34614 21.103C3.93006 21.9111 4.82674 22.2447 5.64863 22.0112C5.28362 22.846 5.31493 23.914 6.01567 24.5001C6.67051 25.0477 7.47952 25.423 8.29069 25.1697C8.21346 25.7052 8.3713 26.2914 8.92192 26.875C9.44191 27.4262 10.1973 27.7006 11.0083 27.5183C10.9011 28.0902 11.0818 28.7257 11.7507 29.3711C12.57 30.1616 13.8311 30.2288 15.0157 29.1407L15.7879 28.241C16.4082 27.461 17.2658 26.1055 15.9844 24.9532C15.5412 24.5547 15.0316 24.3341 14.5026 24.3327C14.7901 23.6321 14.7847 22.7748 13.9532 21.9532C13.4334 21.4396 12.7958 21.2165 12.0932 21.3852C12.473 20.5766 12.4644 19.7523 11.7032 19.0001C11.0118 18.3169 10.1604 17.9929 9.06004 18.6091C9.25414 18.0144 9.20803 17.3821 8.81945 16.8786Z" fill="#FFC83D"/>
          <path d="M9.03352 17.2422L4.31006 21.9066C4.72783 22.0935 5.1834 22.1356 5.61931 22.0191L9.08879 18.593C9.0792 18.5983 9.0696 18.6036 9.05998 18.609C9.20968 18.1502 9.2165 17.6692 9.03352 17.2422Z" fill="#D67D00"/>
          <path d="M12.2463 19.8263L6.95856 25.0846C7.38419 25.2563 7.83707 25.3112 8.29063 25.1696C8.29067 25.1693 8.29059 25.1698 8.29063 25.1696L12.0982 21.3838C12.0965 21.3842 12.0948 21.3846 12.0932 21.385C12.3378 20.8641 12.4213 20.3367 12.2463 19.8263Z" fill="#D67D00"/>
          <path d="M14.5732 22.8968L9.65496 27.3953C10.0587 27.5722 10.5196 27.6262 11.0004 27.5199L14.5129 24.3071C14.683 23.8795 14.7429 23.3951 14.5732 22.8968Z" fill="#D67D00"/>
        </g>
      </g>
      <text id="ITEM_3_HEAD" x="500.0" y="527.0" text-anchor="start" font-weight="800" font-size="30" fill="var(--primary-text)" data-bg-id="ITEM_3_BG" fill-opacity="1.0" style="font-size: 30px; font-family: Inter, Segoe UI, Kalam, Roboto, Helvetica, Arial, sans-serif; font-weight: 700; letter-spacing:-0.4px;" data-final-font-size="30">
        <tspan x="500.0" dy="27.13px">Interagency Coordination</tspan>
      </text>
      <rect id="ITEM_3_HEAD_FRAME" x="500" y="527.0" width="760" height="32" fill="none"/>
      <text id="ITEM_3_BODY" x="500.0" y="565.0" text-anchor="start" font-size="24" fill="var(--primary-text)" data-bg-id="ITEM_3_BG" style="font-size: 26px; font-family: Inter, Segoe UI, Kalam, Roboto, Helvetica, Arial, sans-serif; font-weight: 400;" data-final-font-size="26">
        <tspan x="500.0" dy="31.81px">FBI and Department of War share personnel data</tspan>
      </text>
      <rect id="ITEM_3_BODY_FRAME" x="500" y="565.0" width="860" height="72" fill="none"/>
      <text x="1460" y="551.0" text-anchor="end" font-size="18" font-weight="800" fill="var(--accent-3)" opacity="0.70">03</text>
    </g>
    <g filter="url(#svgd0de590f-shadow)">
      <line x1="404.0" y1="742.5" x2="420.0" y2="742.5" stroke="var(--accent-4)" stroke-width="5" opacity="0.76" stroke-linecap="round"/>
      <rect id="ITEM_4_BG" x="420.0" y="676.5" width="1085" height="152" rx="22" fill="var(--panel)" fill-opacity="0.97" stroke="var(--accent-4)" stroke-width="2.5"/>
      <rect x="420.0" y="676.5" width="1085" height="152" rx="16" fill="url(#svgd0de590f-universal-surface-sheen)" opacity="0.88"/>
      <rect x="420.0" y="676.5" width="14" height="132" rx="7" fill="var(--accent-4)" fill-opacity="0.90"/>
      <circle id="ITEM_4_PAD" cx="360" cy="742.5" r="46" fill="var(--icon-pad-bg)" opacity="0.95" fill-opacity="0.9" stroke-width="2" stroke="var(--primary-text)"/>
      <circle id="ITEM_4_PAD_INNER" cx="360" cy="742.5" r="35.88" fill="var(--accent-5)" fill-opacity="0.22"/>
      <circle cx="360" cy="742.5" r="38" fill="none" stroke="var(--accent-4)" stroke-width="3" stroke-dasharray="6 4"/>
      <g id="ITEM_4_ICON" transform="translate(324, 706.5)" data-icon-size="72" stroke-dasharray="6 4">
        <g transform="translate(-6.666666666666666,-6.666666666666666) scale(3.5555555555555554)" vector-effect="non-scaling-stroke" stroke-width="2.58" stroke-linecap="round" stroke-linejoin="round" stroke-opacity="1.0">
          <path d="M12 5m-2 0a2 2 0 1 0 4 0a2 2 0 1 0 -4 0" vector-effect="non-scaling-stroke" fill="none" stroke="#f1f5f9"/>
          <path d="M5 19m-2 0a2 2 0 1 0 4 0a2 2 0 1 0 -4 0" vector-effect="non-scaling-stroke" fill="none" stroke="#f1f5f9"/>
          <path d="M19 19m-2 0a2 2 0 1 0 4 0a2 2 0 1 0 -4 0" vector-effect="non-scaling-stroke" fill="none" stroke="#f1f5f9"/>
          <path d="M6.5 17.5l5.5 -4.5l5.5 4.5" vector-effect="non-scaling-stroke" fill="none" stroke="#f1f5f9"/>
          <path d="M12 7l0 6" vector-effect="non-scaling-stroke" fill="none" stroke="#f1f5f9"/>
        </g>
      </g>
      <text id="ITEM_4_HEAD" x="500.0" y="694.5" text-anchor="start" font-weight="800" font-size="30" fill="var(--primary-text)" data-bg-id="ITEM_4_BG" fill-opacity="1.0" style="font-size: 30px; font-family: Inter, Segoe UI, Kalam, Roboto, Helvetica, Arial, sans-serif; font-weight: 700; letter-spacing:-0.4px;" data-final-font-size="30">
        <tspan x="500.0" dy="27.13px">Laboratory Stewardship</tspan>
      </text>
      <rect id="ITEM_4_HEAD_FRAME" x="500" y="694.5" width="760" height="32" fill="none"/>
      <text id="ITEM_4_BODY" x="500.0" y="732.5" text-anchor="start" font-size="24" fill="var(--primary-text)" data-bg-id="ITEM_4_BG" style="font-size: 26px; font-family: Inter, Segoe UI, Kalam, Roboto, Helvetica, Arial, sans-serif; font-weight: 400;" data-final-font-size="26">
        <tspan x="500.0" dy="31.81px">DOE protects sensitive nuclear and rocket technology sites</tspan>
      </text>
      <rect id="ITEM_4_BODY_FRAME" x="500" y="732.5" width="860" height="72" fill="none"/>
      <text x="1460" y="718.5" text-anchor="end" font-size="18" font-weight="800" fill="var(--accent-4)" opacity="0.70">04</text>
    </g>
    <g filter="url(#svgd0de590f-shadow)">
      <line x1="404.0" y1="910.0" x2="420.0" y2="910.0" stroke="var(--accent-5)" stroke-width="5" opacity="0.76" stroke-linecap="round"/>
      <rect id="ITEM_5_BG" x="420.0" y="844.0" width="1085" height="152" rx="22" fill="var(--panel)" fill-opacity="0.97" stroke="var(--accent-5)" stroke-width="2.5"/>
      <rect x="420.0" y="844.0" width="1085" height="152" rx="16" fill="url(#svgd0de590f-universal-surface-sheen)" opacity="0.88"/>
      <rect x="420.0" y="844.0" width="14" height="132" rx="7" fill="var(--accent-5)" fill-opacity="0.90"/>
      <circle id="ITEM_5_PAD" cx="360" cy="910.0" r="46" fill="var(--icon-pad-bg)" opacity="0.95" fill-opacity="0.9" stroke-width="2" stroke="var(--primary-text)"/>
      <circle id="ITEM_5_PAD_INNER" cx="360" cy="910.0" r="35.88" fill="var(--accent-6)" fill-opacity="0.22"/>
      <circle cx="360" cy="910.0" r="38" fill="none" stroke="var(--accent-5)" stroke-width="3" stroke-dasharray="6 4"/>
      <g id="ITEM_5_ICON" transform="translate(324, 874.0)" data-icon-size="72" stroke-dasharray="6 4">
        <g transform="translate(-3.9272727272727272,-5.890909090909086) scale(3.4909090909090907)" vector-effect="non-scaling-stroke" stroke-width="2.58" stroke-linecap="round" stroke-linejoin="round" stroke-opacity="1.0">
          <path d="M3 19V5C3 3.89543 3.89543 3 5 3H19C20.1046 3 21 3.89543 21 5V19C21 20.1046 20.1046 21 19 21H5C3.89543 21 3 20.1046 3 19Z" stroke="#f1f5f9" vector-effect="non-scaling-stroke" fill="none"/>
          <path d="M10 15C8.34315 15 7 13.6569 7 12C7 10.3431 8.34315 9 10 9C11.6569 9 13 10.3431 13 12C13 13.6569 11.6569 15 10 15Z" stroke="#f1f5f9" vector-effect="non-scaling-stroke" fill="none"/>
          <path d="M18 14L18 10" stroke="#f1f5f9" vector-effect="non-scaling-stroke" fill="none"/>
          <path d="M12.5 9.5L13.5 8.5" stroke="#f1f5f9" vector-effect="non-scaling-stroke" fill="none"/>
          <path d="M7.5 9.5L6.5 8.5" stroke="#f1f5f9" vector-effect="non-scaling-stroke" fill="none"/>
          <path d="M6.5 15.5L7.5 14.5" stroke="#f1f5f9" vector-effect="non-scaling-stroke" fill="none"/>
          <path d="M13.5 15.5L12.5 14.5" stroke="#f1f5f9" vector-effect="non-scaling-stroke" fill="none"/>
          <path d="M2 8L3 8" stroke="#f1f5f9" vector-effect="non-scaling-stroke" fill="none"/>
          <path d="M2 6L3 6" stroke="#f1f5f9" vector-effect="non-scaling-stroke" fill="none"/>
          <path d="M3 16H2" stroke="#f1f5f9" vector-effect="non-scaling-stroke" fill="none"/>
          <path d="M3 18H2" stroke="#f1f5f9" vector-effect="non-scaling-stroke" fill="none"/>
        </g>
      </g>
      <text id="ITEM_5_HEAD" x="500.0" y="862.0" text-anchor="start" font-weight="800" font-size="30" fill="var(--accent-6)" data-bg-id="ITEM_5_BG" fill-opacity="1.0" style="font-size: 30px; font-family: Inter, Segoe UI, Kalam, Roboto, Helvetica, Arial, sans-serif; font-weight: 700; letter-spacing:-0.4px;" data-final-font-size="30">
        <tspan x="500.0" dy="27.13px">Security</tspan>
      </text>
      <rect id="ITEM_5_HEAD_FRAME" x="500" y="862.0" width="760" height="32" fill="none"/>
      <text id="ITEM_5_BODY" x="500.0" y="900.0" text-anchor="start" font-size="24" fill="var(--primary-text)" data-bg-id="ITEM_5_BG" style="font-size: 26px; font-family: Inter, Segoe UI, Kalam, Roboto, Helvetica, Arial, sans-serif; font-weight: 400;" data-final-font-size="26">
        <tspan x="500.0" dy="31.81px">National security interests dictate the depth of review</tspan>
      </text>
      <rect id="ITEM_5_BODY_FRAME" x="500" y="900.0" width="860" height="72" fill="none"/>
      <text x="1460" y="886.0" text-anchor="end" font-size="18" font-weight="800" fill="var(--accent-5)" opacity="0.70">05</text>
    </g>
  </g>
</svg>
